<?xml version="1.0" encoding="UTF-8" standalone="no"?>
<svg
   version="1.1"
   id="Layer_1"
   x="0px"
   y="0px"
   width="100%"
   viewBox="0 0 674 674"
   enable-background="new 0 0 674 674"
   xml:space="preserve"
   sodipodi:docname="favicon.svg"
   inkscape:version="1.4.2 (ebf0e940, 2025-05-08)"
   xmlns:inkscape="http://www.inkscape.org/namespaces/inkscape"
   xmlns:sodipodi="http://sodipodi.sourceforge.net/DTD/sodipodi-0.dtd"
   xmlns="http://www.w3.org/2000/svg"
   xmlns:svg="http://www.w3.org/2000/svg"><defs
   id="defs10" /><sodipodi:namedview
   id="namedview10"
   pagecolor="#ffffff"
   bordercolor="#000000"
   borderopacity="0.25"
   inkscape:showpageshadow="2"
   inkscape:pageopacity="0.0"
   inkscape:pagecheckerboard="0"
   inkscape:deskcolor="#d1d1d1"
   inkscape:zoom="0.66806569"
   inkscape:cx="294.88118"
   inkscape:cy="262.69872"
   inkscape:window-width="1600"
   inkscape:window-height="858"
   inkscape:window-x="0"
   inkscape:window-y="33"
   inkscape:window-maximized="0"
   inkscape:current-layer="Layer_1" />

<path
   fill="#ABE96A"
   opacity="1.000000"
   stroke="none"
   d=" M127.356339,127.362213   C170.514618,84.318253 222.074081,58.120819 281.458374,46.961071   C307.232513,42.117481 333.235291,40.499958 359.393127,42.129730   C416.516388,45.688812 468.140961,64.594559 514.329163,98.325378   C553.790466,127.143616 584.446106,163.472366 605.937744,207.341736   C620.236450,236.528915 629.297241,267.297272 633.169800,299.692688   C635.970703,323.123291 636.582886,346.487701 633.911926,369.874390   C628.979309,413.063934 616.069946,453.601959 592.922180,490.674164   C568.184814,530.292358 536.424255,562.985229 496.901520,587.903015   C464.042511,608.619507 428.714111,623.449341 390.057861,628.921082   C371.849365,631.498474 353.397858,633.519714 335.041107,633.651062   C294.852234,633.938660 256.181488,625.778320 219.206970,609.652893   C183.175888,593.938904 151.416977,572.011108 124.109634,543.934814   C96.426231,515.471863 75.221779,482.619293 60.909729,445.428741   C51.480652,420.926819 44.805340,395.719360 43.180988,369.518066   C41.979813,350.142761 40.906212,330.552429 42.387577,311.258423   C46.156235,262.173859 61.307835,216.603653 88.487396,175.254913   C99.781029,158.073730 112.936577,142.441437 127.356339,127.362213  M537.701782,524.217224   C547.275146,512.292969 557.627686,500.904968 566.273804,488.342560   C590.860107,452.619934 605.208984,412.945923 610.292297,369.819916   C613.829834,339.807617 612.656372,310.080811 606.420715,280.561066   C598.504517,243.086014 583.151733,208.855957 560.657837,177.884644   C536.834656,145.083038 507.349518,118.589638 471.837006,98.874367   C442.590515,82.637787 411.501343,72.154068 378.301636,67.620354   C349.064880,63.627823 319.932892,63.919338 290.866852,68.555557   C262.594879,73.065117 235.775085,82.102821 210.251556,95.159805   C188.157867,106.462196 168.000977,120.482986 150.117081,137.599457   C121.865776,164.638458 99.979408,196.133011 85.064171,232.408875   C74.035042,259.233185 67.494904,287.125946 65.108025,315.949066   C63.512894,335.211273 64.564232,354.445221 66.947655,373.659973   C70.691399,403.841339 79.359520,432.465118 92.909508,459.623260   C111.671379,497.227478 138.223450,528.367554 171.426300,554.008179   C229.026093,598.489136 294.298004,615.840088 366.277008,608.817017   C400.690430,605.459290 433.443909,596.023376 464.109192,579.685547   C491.363068,565.165283 515.965759,547.197815 537.701782,524.217224  z"
   id="path2" />

<path
   fill="#AAE96A"
   opacity="1.000000"
   stroke="none"
   d=" M462.704163,245.034653   C443.150574,240.531082 430.419617,218.431259 435.520294,197.845871   C442.319794,170.404312 474.046967,157.565094 497.688416,173.084335   C511.337769,182.044388 517.837524,195.283783 515.717285,211.579666   C513.497437,228.641235 503.617645,239.913422 486.257294,245.235474   C485.363190,246.969437 485.036530,248.432816 485.035980,249.896317   C485.010376,317.997009 485.007355,386.097717 485.048462,454.198395   C485.049408,455.780975 485.583557,457.363251 485.868958,458.945648   C483.652496,473.286224 470.952057,486.036072 455.688477,489.243500   C436.382721,493.300323 417.194580,484.990326 409.797638,469.150116   C406.351013,461.769287 403.303650,454.201813 400.084991,446.714783   C386.878174,415.993713 373.659515,385.277679 360.474701,354.547150   C345.914520,320.611053 331.401123,286.654816 316.838379,252.719803   C309.621246,235.901962 302.287292,219.134064 295.119232,202.295456   C293.072296,197.486908 289.846100,194.843796 284.492798,194.764786   C279.076996,194.684891 275.687073,197.419586 273.767426,202.158478   C266.772278,219.426865 259.867737,236.731934 252.913879,254.017075   C241.924881,281.332306 230.920471,308.641388 219.940170,335.960114   C219.529907,336.980835 219.304047,338.075592 218.845016,339.636658   C220.894928,339.730865 222.495346,339.865814 224.095963,339.868317   C237.761475,339.889526 251.427704,339.814209 265.092072,339.943909   C268.346039,339.974792 270.353088,339.303284 272.241821,336.132355   C279.754211,323.520081 292.516846,317.941956 307.858704,321.271240   C320.474701,324.009033 329.178925,331.923370 332.354401,344.845825   C336.470337,361.595337 327.950684,377.414368 311.863098,383.375519   C296.110168,389.212677 278.201416,382.201294 270.791931,367.039734   C269.561066,364.521118 268.261719,363.726471 265.561951,363.742859   C247.564148,363.852020 229.564056,363.695587 211.568741,363.931885   C209.821182,363.954865 207.162170,365.674072 206.510574,367.257751   C198.349289,387.093506 190.402588,407.019623 182.691101,427.034393   C182.102127,428.562988 183.113922,431.512604 184.387695,432.826172   C193.762283,442.493652 196.377533,453.901367 192.596786,466.449768   C188.909836,478.686829 180.296021,486.404114 167.801407,489.432037   C149.934937,493.761810 130.833694,482.218384 127.285225,465.079376   C123.234734,445.515656 134.534058,427.563263 153.337341,424.007019   C157.144775,423.286926 158.986679,421.618805 160.486465,417.862427   C171.711914,389.747284 183.312744,361.782104 194.783798,333.764923   C204.805435,309.287872 214.815079,284.805878 224.822647,260.323029   C234.202362,237.376190 243.517944,214.402969 252.967804,191.485077   C258.350586,178.430679 270.891113,171.047043 287.111877,171.097885   C299.708221,171.137390 311.413452,179.500992 316.776001,192.017365   C336.557068,238.186951 356.470642,284.299866 376.203979,330.489777   C393.854065,371.803436 411.475952,413.130707 428.751343,454.601501   C431.791656,461.900024 437.509125,465.168152 443.888916,467.813324   C447.923004,469.485870 457.889374,463.800751 460.699493,459.021057   C461.371765,457.877594 461.873535,456.633881 462.962555,455.217041   C463.638977,454.998932 463.806549,455.000092 464.278137,454.712097   C464.721436,453.114380 464.982178,451.805847 464.982574,450.497223   C465.002228,384.566467 465.006348,318.635681 464.958344,252.704956   C464.957214,251.142746 464.344757,249.580994 464.003906,247.661896   C463.561615,246.548050 463.132874,245.791351 462.704163,245.034653  M460.028168,196.671646   C459.526703,197.532135 458.972382,198.366501 458.532166,199.257263   C454.951019,206.503616 456.570190,215.057098 462.469269,220.171234   C469.099518,225.919266 477.787048,226.328262 485.518494,221.256470   C492.669769,216.565247 495.461945,209.151810 492.983643,201.436172   C488.675995,188.025467 470.830414,185.086990 460.028168,196.671646  M150.558548,450.201447   C150.233887,450.782318 149.859467,451.341309 149.592407,451.947571   C147.307297,457.134521 148.025620,461.411011 151.797333,465.217407   C155.431503,468.884979 161.152710,469.930573 166.121323,467.835236   C170.706497,465.901611 173.423157,461.525146 173.162582,456.307281   C172.901794,451.084869 170.133270,447.543518 165.326096,445.817017   C159.793579,443.830017 154.831818,444.754364 150.558548,450.201447  M310.574707,358.737762   C311.063446,356.343750 312.044586,353.927368 311.936981,351.560455   C311.722076,346.832489 307.030090,342.513397 301.637299,341.421783   C297.532990,340.591003 292.103241,343.172028 289.697510,347.097382   C287.227936,351.126892 287.747925,356.325104 290.836487,360.122833   C294.957703,365.190369 305.978882,366.044952 310.574707,358.737762  z"
   id="path4" />
<path
   fill="#96D553"
   opacity="1.000000"
   stroke="none"
   d=" M485.946960,458.486389   C485.583557,457.363251 485.049408,455.780975 485.048462,454.198395   C485.007355,386.097717 485.010376,317.997009 485.035980,249.896317   C485.036530,248.432816 485.363190,246.969437 485.889282,245.259964   C486.187439,277.604736 486.116943,310.195496 486.085114,342.786346   C486.047607,381.199951 486.043579,419.613525 485.946960,458.486389  z"
   id="path5" />
<path
   fill="#96CE5F"
   opacity="1.000000"
   stroke="none"
   d=" M462.818176,245.489960   C463.132874,245.791351 463.561615,246.548050 463.997681,248.128250   C463.994720,317.634918 463.984406,386.318054 463.974091,455.001221   C463.806549,455.000092 463.638977,454.998932 463.219971,454.997559   C462.956482,385.313324 462.944366,315.629303 462.818176,245.489960  z"
   id="path6" />



<path
   fill="#B6F26F"
   opacity="1.000000"
   stroke="none"
   d=" M464.278137,454.712097   C463.984406,386.318054 463.994720,317.634918 464.011230,248.485382   C464.344757,249.580994 464.957214,251.142746 464.958344,252.704956   C465.006348,318.635681 465.002228,384.566467 464.982574,450.497223   C464.982178,451.805847 464.721436,453.114380 464.278137,454.712097  z"
   id="path10" />
</svg>
